<svg xmlns="http://www.w3.org/2000/svg" width="39" height="39.03" viewBox="0 0 39 39.03">
  <g id="empty-wallet" transform="translate(1.5 1.53)">
    <g id="Group" transform="translate(0 0)">
      <path id="Vector" d="M27.89,10.464A3.634,3.634,0,0,0,26.813,13.4a3.833,3.833,0,0,0,3.877,3.374H34.1v2.147a6.781,6.781,0,0,1-6.748,6.783H6.748A6.781,6.781,0,0,1,0,18.925V6.783A6.781,6.781,0,0,1,6.748,0h20.6A6.781,6.781,0,0,1,34.1,6.783v2.6H30.474A3.568,3.568,0,0,0,27.89,10.464Z" transform="translate(0 10.291)" fill="none" stroke="#fff" stroke-linecap="round" stroke-linejoin="round" stroke-width="3"/>
      <path id="Vector-2" data-name="Vector" d="M0,18.7V10.454A5.137,5.137,0,0,1,3.3,5.637L17.552.224a3.413,3.413,0,0,1,4.612,3.211v6.856" transform="translate(0 0)" fill="none" stroke="#fff" stroke-linecap="round" stroke-linejoin="round" stroke-width="3"/>
    </g>
    <path id="Vector-3" data-name="Vector" d="M9.205,1.84V5.557A1.848,1.848,0,0,1,7.411,7.4H3.893A3.833,3.833,0,0,1,.016,4.023,3.634,3.634,0,0,1,1.093,1.082,3.568,3.568,0,0,1,3.678,0H7.411A1.848,1.848,0,0,1,9.205,1.84Z" transform="translate(26.795 19.673)" fill="none" stroke="#fff" stroke-linecap="round" stroke-linejoin="round" stroke-width="3"/>
    <path id="Vector-4" data-name="Vector" d="M0,0H12.563" transform="translate(8.076 17.959)" fill="none" stroke="#fff" stroke-linecap="round" stroke-linejoin="round" stroke-width="3"/>
  </g>
</svg>
