<svg xmlns="http://www.w3.org/2000/svg" width="196" height="196" viewBox="0 0 196 196">
  <g id="receipt-text" transform="translate(-53 -447)">
    <rect id="Прямоугольник_67" data-name="Прямоугольник 67" width="196" height="196" transform="translate(53 447)" fill="#fff" opacity="0"/>
    <path id="Vector" d="M14.4,9.6v5.808A5.772,5.772,0,0,1,8.208,21.6H0V4.824A4.845,4.845,0,0,1,4.848,0,9.587,9.587,0,0,1,14.4,9.6Z" transform="translate(160.6 520)" fill="none" stroke="#292d32" stroke-linecap="round" stroke-linejoin="round" stroke-width="3"/>
    <path id="Vector-2" data-name="Vector" d="M0,12V45.6a2.392,2.392,0,0,0,3.84,1.92l4.1-3.072a2.418,2.418,0,0,1,3.168.24L15.1,48.7a2.419,2.419,0,0,0,3.408,0l4.032-4.032a2.379,2.379,0,0,1,3.12-.216l4.1,3.072A2.4,2.4,0,0,0,33.6,45.6V4.8A4.814,4.814,0,0,1,38.4,0H9.6C2.4,0,0,4.3,0,9.6Z" transform="translate(127 520)" fill="none" stroke="#292d32" stroke-linecap="round" stroke-linejoin="round" stroke-width="3"/>
    <path id="Vector-3" data-name="Vector" d="M0,0H14.4" transform="translate(136.6 536.8)" fill="none" stroke="#292d32" stroke-linecap="round" stroke-linejoin="round" stroke-width="3"/>
    <path id="Vector-4" data-name="Vector" d="M0,0H10.8" transform="translate(138.4 546.4)" fill="none" stroke="#292d32" stroke-linecap="round" stroke-linejoin="round" stroke-width="3"/>
  </g>
</svg>
