<svg id="Слой_1" data-name="Слой 1" xmlns="http://www.w3.org/2000/svg" viewBox="0 0 143 88"><defs><style>.cls-1{fill:#063;}.cls-2{fill:#1d1d1b;}</style></defs><path class="cls-1" d="M18.57,72.38H17v-18L9.55,66.83H9.29L1.81,54.4v18H.28V52.15h1.9l7.23,12,7.22-12h1.94Z"/><path class="cls-1" d="M43,67.24H32.82l-2,5.14H29.23l7.86-20.23h1.62l7.84,20.23H44.93Zm-.55-1.45L37.9,54,33.4,65.79Z"/><path class="cls-1" d="M65.13,64.09H58.74v8.29H57.21V52.15h8a6,6,0,0,1,1.53,11.73l5,8.5H70Zm-6.39-1.45h6.45a4.53,4.53,0,0,0,0-9H58.74Z"/><path class="cls-1" d="M94.32,72.38l-10.15-10v10H82.64V52.15h1.53v9.42L94,52.15h2L85.85,62l10.52,10.4Z"/><path class="cls-1" d="M118.53,70.93v1.45H106.89V52.15h11.5v1.44h-10v7.87h9.25V62.9h-9.25v8Z"/><path class="cls-1" d="M142.43,53.59h-6.35V72.38h-1.56V53.59h-6.36V52.15h14.27Z"/><path class="cls-2" d="M39.79,23.81A19.81,19.81,0,1,1,20,4,19.6,19.6,0,0,1,34,9.81l-4.66,4.67a13.18,13.18,0,1,0,3.47,12.63H21.09L20,20.51h19.8Z"/><path class="cls-2" d="M98.94,4V37h15.4l-2.2,6.61H92.33V4Z"/><path class="cls-2" d="M121,4h22l-2.2,6.6h-13.2v9.91h11v6.6h-11V43.62H121Z"/><path class="cls-1" d="M69.52,44.26A20.81,20.81,0,1,1,81.86,6.69a21.6,21.6,0,1,0,5.78,27A20.78,20.78,0,0,1,69.52,44.26Z"/><path class="cls-1" d="M50.36,26.45c.59-1.49.53-2.12-.47-3.18,0-.18,0-.36.07-.53a1.66,1.66,0,0,1,1.71.43,2.4,2.4,0,0,1,.52,2.66,1.44,1.44,0,0,1-1.83.62Z"/><path class="cls-1" d="M53.44,31.35A2.29,2.29,0,0,0,52.7,29a2,2,0,0,0-2.4-.34c1.34.84,2,1.89,1.4,3.43,1,.14,1.49-.08,1.74-.69Z"/><path class="cls-1" d="M51.33,20a2.3,2.3,0,0,0,.1-2.05,18.86,18.86,0,0,0-1,2.78,1.6,1.6,0,0,0,.93-.73Z"/><path class="cls-1" d="M55,36a2.2,2.2,0,0,0-1.24-1.88,2.1,2.1,0,0,0-2-.28c.07.15.16.31.24.46a2.4,2.4,0,0,1,1.34,2.08c.13.18.27.37.42.54C54.45,37,55,36.7,55,36Z"/><path class="cls-1" d="M58.11,34.59a1.42,1.42,0,0,0,1.52-1.15,2,2,0,0,0-1-2.08A2.19,2.19,0,0,0,56.41,31a11.92,11.92,0,0,1,1.66,1.4,1.89,1.89,0,0,1,0,2.18Z"/><path class="cls-1" d="M64.58,36.65a1.87,1.87,0,0,0,1.65-1.13,1.49,1.49,0,0,0-.5-1.67,2.29,2.29,0,0,0-2.52-.41c1.9.81,2.31,1.74,1.37,3.21Z"/><path class="cls-1" d="M57.75,36.44c1.91.64,2.44,1.33,2.06,2.73,1.11-.1,1.64-.74,1.35-1.52a2.66,2.66,0,0,0-3.41-1.21Z"/><path class="cls-1" d="M66.15,40.5c.29-.1.58-.12.73-.27.34-.32.85-.72.84-1.07A1.8,1.8,0,0,0,66.91,38a2.71,2.71,0,0,0-2.32-.11c2,.63,2.32,1.22,1.56,2.63Z"/><path class="cls-1" d="M74,38.77c-.18-.68-1.12-.91-2.32-.57,1.39.65,1.49,1.09.48,2.36,1.28-.32,2-1.07,1.84-1.79Z"/><path class="cls-1" d="M57.84,25.89a2.15,2.15,0,0,0-2.7-.61c2.28.55,2.88,1.29,2.62,3.3a2,2,0,0,0,.08-2.69Z"/><path class="cls-1" d="M56.82,19.72a1.89,1.89,0,0,0-2.54-.35c1.95,0,2.82,1.09,2.48,3.21a2.08,2.08,0,0,0,.06-2.86Z"/><path class="cls-1" d="M64.3,31a1.86,1.86,0,0,0,.2-2.41,2.29,2.29,0,0,0-3-.67c2.13.09,3,1.07,2.75,3.08Z"/><path class="cls-1" d="M72.19,36.56a1.24,1.24,0,0,0,.19-1.7,2.08,2.08,0,0,0-2.56-.39c1.86.14,2.35.56,2.37,2.09Z"/><path class="cls-1" d="M79.33,38.72a1.13,1.13,0,0,1,.18,0c0-.37.24-.9.07-1.09-.51-.55-1.15-.26-1.94,0,1.37-.08,1.64.11,1.69,1Z"/><path class="cls-1" d="M61.76,42.62a5.27,5.27,0,0,0,1-.36c-1.33-.39-2.8-.33-3.24-2.34-.44.43-1,.73-1,1a.62.62,0,0,0,0,.13,18.16,18.16,0,0,0,3.28,1.53Z"/><path class="cls-1" d="M65.8,43.51a16.06,16.06,0,0,0,2.2.09A2.72,2.72,0,0,0,69.17,43c-1.15-.09-2.53.33-3-1.42a4.7,4.7,0,0,0-.77.44.71.71,0,0,0,.05,1.24,2.15,2.15,0,0,0,.4.21Z"/><path class="cls-2" d="M4.21,85.86H3.87V82L2.25,84.66H2.19L.57,82v3.88H.23V81.49H.65l1.57,2.58,1.57-2.58h.42Z"/><path class="cls-2" d="M9.5,84.75H7.3l-.43,1.11H6.52l1.71-4.37h.35l1.7,4.37H9.93Zm-.11-.31-1-2.55-1,2.55Z"/><path class="cls-2" d="M15,81.8H12.93v4.06H12.6V81.49H15Z"/><path class="cls-2" d="M19.9,84.75H17.7l-.43,1.11h-.35l1.71-4.37H19l1.7,4.37h-.35Zm-.12-.31-1-2.55-1,2.55Z"/><path class="cls-2" d="M25.69,84.7c0,.7-.56,1.23-1.48,1.23a1.45,1.45,0,0,1-1.51-1l.29-.16a1.13,1.13,0,0,0,1.22.81c.73,0,1.15-.39,1.15-.92a.92.92,0,0,0-1-.91h-.5v-.31h.35a.88.88,0,1,0,0-1.75,1.11,1.11,0,0,0-1.13.72l-.28-.16a1.41,1.41,0,0,1,1.41-.87,1.23,1.23,0,0,1,1.34,1.19,1.06,1.06,0,0,1-.65,1A1.13,1.13,0,0,1,25.69,84.7Z"/><path class="cls-2" d="M31.06,82.1l-2.6,3.76h-.29V81.49h.33v3.76l2.59-3.76h.3v4.37h-.33Z"/><path class="cls-2" d="M37.38,81.49v4.37H37V83.77H34.49v2.09h-.33V81.49h.33v2H37v-2Z"/><path class="cls-2" d="M46.2,81.8H44.82v4.06h-.34V81.8H43.1v-.31h3.1Z"/><path class="cls-2" d="M48.31,83.68a2.27,2.27,0,1,1,2.27,2.25A2.25,2.25,0,0,1,48.31,83.68Zm4.2,0a1.93,1.93,0,1,0-1.93,1.93A1.92,1.92,0,0,0,52.51,83.68Z"/><path class="cls-2" d="M58.46,84.67a1.19,1.19,0,0,1-1.2,1.19h-1.9V81.49h1.75a1.16,1.16,0,0,1,1.16,1.15,1.06,1.06,0,0,1-.57,1A1.16,1.16,0,0,1,58.46,84.67ZM55.7,81.8v1.68h1.41a.84.84,0,0,0,0-1.68Zm2.42,2.87a.86.86,0,0,0-.86-.88H55.7v1.76h1.56A.86.86,0,0,0,58.12,84.67Z"/><path class="cls-2" d="M63.48,84.75h-2.2l-.43,1.11H60.5l1.7-4.37h.36l1.7,4.37h-.35Zm-.12-.31-1-2.55-1,2.55Z"/><path class="cls-2" d="M69.44,82.84a1.32,1.32,0,0,1-1.37,1.35H66.91v1.67h-.34V81.49h1.5A1.32,1.32,0,0,1,69.44,82.84Zm-.34,0a1,1,0,0,0-1-1H66.91v2.08h1.16A1,1,0,0,0,69.1,82.84Z"/><path class="cls-2" d="M71.68,83.68A2.27,2.27,0,1,1,74,85.93,2.25,2.25,0,0,1,71.68,83.68Zm4.2,0A1.93,1.93,0,1,0,74,85.61,1.91,1.91,0,0,0,75.88,83.68Z"/><path class="cls-2" d="M81.83,84.67a1.19,1.19,0,0,1-1.2,1.19h-1.9V81.49h1.75a1.15,1.15,0,0,1,1.16,1.15,1.06,1.06,0,0,1-.57,1A1.16,1.16,0,0,1,81.83,84.67ZM79.07,81.8v1.68h1.41a.84.84,0,0,0,0-1.68Zm2.43,2.87a.87.87,0,0,0-.87-.88H79.07v1.76h1.56A.87.87,0,0,0,81.5,84.67Z"/><path class="cls-2" d="M91.22,85.55V86.7h-.34v-.84h-3.3v.84h-.34V85.55h.35A2.21,2.21,0,0,0,88,84V81.49h2.71v4.06Zm-3.23,0h2.43V81.8h-2V84A2.61,2.61,0,0,1,88,85.55Z"/><path class="cls-2" d="M93.25,85.57c.57.07.94-.29.94-1.56V81.49H97v4.37h-.34V81.8H94.53V84c0,1.46-.47,1.92-1.28,1.85Z"/><path class="cls-2" d="M102.58,85.86h-.33V84.07H101L99.8,85.86h-.38l1.25-1.8a1.29,1.29,0,0,1,.17-2.57h1.74Zm-.33-2.1v-2h-1.41a1,1,0,0,0,0,2Z"/><path class="cls-2" d="M111.11,81.8H109v4.06h-.33V81.49h2.41Z"/><path class="cls-2" d="M113.22,83.68a2.27,2.27,0,1,1,2.27,2.25A2.25,2.25,0,0,1,113.22,83.68Zm4.2,0a1.94,1.94,0,1,0-1.93,1.93A1.92,1.92,0,0,0,117.42,83.68Z"/><path class="cls-2" d="M119.84,85.57c.58.07,1-.29,1-1.56V81.49h2.78v4.37h-.34V81.8h-2.11V84c0,1.46-.47,1.92-1.28,1.85Z"/><path class="cls-2" d="M129.19,84.51a1.32,1.32,0,0,1-1.37,1.35h-1.49V81.49h.33v1.67h1.16A1.32,1.32,0,0,1,129.19,84.51Zm-.33,0a1,1,0,0,0-1-1h-1.16v2.08h1.16A1,1,0,0,0,128.86,84.51Z"/><path class="cls-2" d="M133.84,85.37v.49h-.34v-.49c-1.24-.05-2.15-.62-2.15-1.69s.91-1.65,2.15-1.7v-.49h.34V82c1.23,0,2.14.62,2.14,1.7S135.07,85.32,133.84,85.37Zm-.34-.31V82.29c-1.08,0-1.81.5-1.81,1.39S132.42,85,133.5,85.06Zm2.15-1.38c0-.89-.73-1.35-1.81-1.39v2.77C134.92,85,135.65,84.56,135.65,83.68Z"/><path class="cls-2" d="M140.94,84.75h-2.2l-.43,1.11H138l1.71-4.37H140l1.7,4.37h-.35Zm-.12-.31-1-2.55-1,2.55Z"/></svg>